<?xml version="1.0" standalone="no"?>
<!DOCTYPE svg PUBLIC "-//W3C//DTD SVG 20010904//EN"
 "http://www.w3.org/TR/2001/REC-SVG-20010904/DTD/svg10.dtd">
<svg version="1.0" xmlns="http://www.w3.org/2000/svg"
 width="2400.000000pt" height="2400.000000pt" viewBox="0 0 2400.000000 2400.000000"
 preserveAspectRatio="xMidYMid meet">
<metadata>
Created by potrace 1.11, written by Peter Selinger 2001-2013
</metadata>
<g transform="translate(0.000000,2400.000000) scale(0.100000,-0.100000)"
fill="#000000" stroke="none">
<path d="M130 21601 l0 -2401 83 0 c274 -2 642 -12 897 -25 157 -9 397 -24
465 -30 28 -2 86 -7 130 -10 44 -3 98 -8 120 -10 22 -3 67 -7 100 -10 33 -3
76 -8 95 -10 19 -2 67 -7 105 -10 39 -4 81 -8 95 -10 14 -2 57 -7 95 -11 39
-3 79 -8 90 -10 11 -2 45 -6 75 -10 30 -3 67 -7 83 -10 78 -12 81 -13 225 -30
26 -3 54 -7 62 -9 8 -2 35 -7 60 -10 81 -11 170 -24 205 -31 11 -2 92 -16 180
-30 88 -15 165 -27 170 -29 6 -1 28 -5 50 -9 22 -4 85 -17 140 -27 55 -11 114
-22 130 -25 25 -4 82 -16 195 -39 364 -76 807 -183 1175 -285 44 -12 94 -25
110 -30 57 -16 280 -81 395 -116 164 -50 761 -249 850 -284 41 -16 120 -46
175 -65 55 -20 129 -48 165 -62 111 -42 194 -75 215 -84 11 -5 108 -44 215
-88 269 -110 383 -159 695 -301 233 -106 860 -416 995 -492 25 -14 86 -47 135
-73 785 -421 1701 -1014 2434 -1575 68 -52 136 -104 150 -115 56 -43 270 -212
331 -263 36 -29 72 -59 80 -65 13 -10 135 -111 220 -183 56 -47 185 -159 190
-164 3 -3 39 -34 80 -70 88 -76 130 -114 174 -155 18 -16 70 -64 115 -105 356
-322 942 -912 1277 -1286 203 -227 242 -271 300 -339 32 -38 61 -72 64 -75 4
-3 40 -45 81 -95 41 -49 84 -101 96 -115 17 -19 166 -203 276 -340 7 -8 48
-62 92 -120 44 -58 83 -107 86 -110 3 -3 32 -41 65 -85 32 -44 61 -82 65 -85
5 -4 285 -390 317 -436 7 -11 38 -55 69 -99 54 -77 331 -490 405 -605 213
-330 506 -824 690 -1165 36 -66 80 -147 98 -180 52 -94 381 -750 427 -850 23
-49 60 -130 83 -180 54 -116 180 -401 214 -485 15 -36 33 -78 41 -95 7 -16 38
-93 69 -170 31 -77 61 -149 65 -160 5 -11 21 -51 36 -90 273 -698 508 -1424
698 -2150 33 -126 49 -187 48 -192 0 -2 5 -17 10 -35 15 -52 115 -482 139
-598 11 -58 28 -132 35 -165 8 -33 17 -78 20 -100 4 -22 8 -48 11 -57 3 -10 7
-30 10 -45 5 -26 37 -203 49 -268 3 -16 10 -55 15 -85 5 -30 11 -66 14 -80 5
-25 30 -180 41 -255 4 -22 8 -52 11 -67 8 -53 54 -370 59 -411 3 -23 7 -53 10
-67 2 -14 7 -50 10 -80 3 -30 7 -71 10 -90 21 -175 41 -360 50 -480 3 -41 8
-86 10 -100 2 -14 6 -65 10 -115 3 -49 8 -108 10 -130 2 -22 7 -87 11 -145 4
-58 8 -121 9 -140 1 -19 6 -100 10 -180 4 -80 8 -170 10 -200 2 -30 7 -206 10
-390 4 -184 8 -357 9 -385 l1 -50 2374 -3 2373 -2 -6 372 c-3 205 -8 425 -11
488 -12 297 -16 380 -20 445 -2 39 -7 120 -10 180 -3 61 -8 133 -10 160 -2 28
-7 93 -10 145 -4 52 -8 111 -10 130 -2 19 -6 71 -10 115 -3 44 -8 105 -11 135
-10 111 -14 156 -19 200 -2 25 -7 74 -10 110 -3 36 -8 81 -10 100 -7 54 -12
99 -20 170 -6 68 -8 80 -25 220 -17 141 -20 164 -26 200 -3 19 -7 51 -9 70 -9
78 -15 126 -20 150 -3 14 -7 41 -9 60 -3 19 -7 52 -10 73 -3 20 -8 54 -11 75
-12 83 -16 109 -25 162 -9 54 -20 125 -25 165 -2 11 -8 49 -15 85 -7 36 -14
80 -16 99 -3 19 -6 37 -9 40 -2 4 -7 34 -10 66 -4 33 -9 63 -11 66 -2 4 -6 24
-9 45 -4 22 -8 46 -10 54 -3 8 -7 33 -10 55 -4 22 -17 94 -30 160 -13 66 -27
134 -29 150 -5 23 -63 307 -91 440 -21 96 -69 308 -116 503 -12 48 -23 95 -25
105 -2 10 -6 27 -9 37 -3 10 -7 27 -9 37 -10 47 -68 271 -123 468 -14 50 -26
97 -28 105 -2 8 -22 80 -45 160 -23 80 -50 174 -60 210 -103 365 -315 1013
-473 1450 -52 143 -167 451 -182 485 -7 17 -57 140 -110 275 -98 245 -251 610
-306 728 -16 34 -29 64 -29 67 0 21 -452 972 -520 1095 -8 14 -15 27 -15 30
-3 17 -266 514 -403 760 -41 74 -89 160 -105 190 -17 30 -48 84 -69 119 -21
34 -38 65 -38 67 0 6 -288 488 -388 649 -82 132 -372 584 -385 600 -4 6 -42
61 -83 124 -85 129 -141 211 -288 419 -56 79 -108 154 -116 165 -75 111 -452
616 -592 794 -49 62 -105 135 -126 161 -65 84 -242 302 -367 451 -66 79 -131
157 -145 174 -14 16 -43 51 -65 77 -22 25 -65 75 -95 110 -30 35 -89 103 -131
150 -41 47 -89 100 -105 119 -16 18 -40 45 -54 60 -49 53 -201 219 -219 240
-95 110 -567 596 -830 856 -192 189 -444 427 -635 600 -48 44 -103 94 -121
110 -17 17 -47 44 -66 60 -19 17 -73 64 -119 105 -47 41 -116 102 -155 135
-38 33 -72 62 -75 65 -8 8 -260 221 -320 270 -30 25 -57 47 -60 51 -15 17
-578 460 -770 605 -551 417 -1178 850 -1715 1184 -82 51 -173 108 -202 126
-28 19 -56 34 -62 34 -6 0 -11 5 -11 10 0 6 -4 10 -9 10 -5 0 -71 38 -147 84
-143 86 -507 297 -534 309 -8 4 -28 15 -45 25 -134 81 -631 345 -960 510 -733
367 -1460 685 -2225 974 -102 38 -205 76 -230 84 -25 9 -58 21 -75 29 -16 7
-41 16 -55 20 -14 3 -34 10 -45 15 -78 35 -1019 345 -1106 365 -9 2 -63 18
-120 35 -93 28 -142 42 -244 70 -16 5 -64 18 -105 30 -161 45 -750 198 -830
215 -8 2 -103 24 -210 48 -107 25 -213 49 -235 53 -22 5 -42 9 -45 9 -3 1 -18
4 -35 8 -47 11 -52 12 -370 76 -315 63 -330 66 -404 78 -25 4 -48 8 -51 8 -3
1 -25 5 -50 9 -25 5 -54 10 -65 12 -26 5 -324 55 -350 58 -17 3 -101 15 -205
31 -103 16 -243 35 -285 40 -27 3 -61 8 -75 10 -24 5 -143 20 -240 31 -25 3
-56 7 -70 9 -14 3 -56 7 -95 10 -38 3 -77 8 -85 10 -8 2 -51 7 -95 11 -44 3
-89 8 -100 10 -11 2 -56 7 -99 10 -44 3 -87 7 -97 9 -10 2 -58 6 -106 10 -48
3 -104 8 -123 10 -73 9 -343 29 -545 40 -60 4 -137 8 -170 10 -53 3 -139 7
-455 20 -47 2 -253 7 -457 10 l-373 6 0 -2400z"/>
<path d="M130 13581 c0 -1282 3 -2332 8 -2332 4 -1 68 -3 142 -4 173 -3 471
-15 524 -20 23 -2 84 -7 136 -10 52 -3 113 -8 135 -10 152 -13 184 -16 215
-20 19 -2 60 -7 90 -10 30 -3 71 -8 90 -10 19 -2 59 -7 89 -11 30 -3 63 -7 74
-10 11 -2 57 -9 101 -15 45 -6 90 -13 101 -14 120 -17 468 -82 613 -115 48
-10 101 -21 117 -24 41 -8 459 -113 515 -130 25 -8 83 -24 130 -37 47 -12 89
-26 94 -31 6 -4 17 -8 26 -8 22 0 396 -123 585 -193 622 -228 1184 -493 1787
-842 114 -66 314 -190 316 -197 2 -4 8 -8 14 -8 11 0 338 -217 493 -328 379
-269 754 -575 1114 -907 129 -118 562 -554 671 -675 57 -63 120 -133 140 -155
140 -155 479 -577 623 -776 142 -197 165 -230 297 -429 210 -315 424 -676 591
-995 95 -182 265 -530 316 -650 140 -324 244 -584 315 -785 75 -213 189 -569
228 -710 63 -231 84 -309 91 -340 4 -19 21 -93 38 -165 17 -71 34 -141 37
-155 3 -14 6 -29 8 -35 4 -17 15 -69 20 -95 4 -23 18 -90 30 -146 2 -12 7 -38
10 -58 3 -21 13 -70 21 -109 8 -40 17 -90 20 -112 3 -23 7 -51 10 -64 6 -31
43 -283 50 -341 3 -25 8 -56 10 -70 2 -14 7 -54 10 -90 4 -36 8 -78 11 -95 2
-16 6 -59 10 -95 3 -36 7 -81 9 -100 2 -19 6 -71 10 -115 4 -44 8 -100 10
-125 13 -153 22 -373 25 -623 l3 -187 2306 2 2306 3 -1 185 c-1 173 -12 541
-19 655 -2 28 -6 101 -10 163 -3 62 -8 137 -11 165 -2 29 -6 88 -9 132 -3 44
-7 94 -10 110 -2 17 -7 66 -10 110 -3 44 -8 91 -10 105 -3 14 -7 54 -10 90 -5
63 -8 89 -19 175 -3 22 -8 60 -11 85 -5 41 -18 143 -31 245 -6 44 -30 207 -40
270 -8 53 -72 422 -79 460 -65 337 -102 513 -156 738 -22 95 -42 179 -44 187
-2 8 -11 44 -20 80 -9 36 -18 72 -20 80 -2 8 -26 98 -55 200 -28 102 -53 192
-55 200 -13 52 -133 443 -180 585 -107 322 -293 829 -360 980 -7 17 -25 62
-40 100 -26 67 -67 163 -106 250 -10 22 -44 101 -77 175 -100 228 -141 315
-289 610 -145 292 -275 539 -343 655 -10 17 -31 55 -48 85 -16 30 -66 118
-112 195 -45 77 -91 156 -102 175 -11 19 -33 54 -49 78 -16 24 -29 45 -29 47
0 23 -554 855 -662 995 -11 14 -47 63 -82 110 -121 165 -280 375 -310 411 -32
38 -39 46 -96 119 -38 49 -357 433 -386 465 -11 11 -50 56 -89 100 -38 44 -86
97 -105 119 -19 21 -46 50 -59 65 -140 155 -271 291 -516 536 -306 307 -425
420 -705 671 -90 81 -328 283 -471 400 -155 127 -159 130 -319 254 -58 45
-123 95 -144 113 -21 18 -46 36 -55 41 -9 5 -59 42 -111 81 -320 241 -837 586
-1256 838 -181 108 -249 148 -354 205 -25 13 -49 27 -55 32 -10 7 -35 21 -270
147 -148 80 -469 242 -607 307 -51 24 -136 64 -188 89 -52 24 -149 68 -215 97
-66 29 -138 61 -160 71 -118 55 -626 256 -875 346 -240 87 -914 305 -1018 328
-9 2 -89 24 -177 48 -158 44 -544 141 -598 151 -15 3 -35 7 -45 10 -16 5 -330
73 -382 82 -14 2 -72 14 -129 25 -119 24 -99 20 -301 54 -270 45 -275 46 -385
60 -27 3 -72 10 -100 15 -27 5 -71 11 -97 15 -97 11 -144 17 -168 21 -14 2
-54 6 -90 10 -36 3 -74 7 -85 9 -11 1 -56 6 -100 10 -44 4 -91 9 -105 11 -14
2 -61 6 -105 9 -44 3 -93 8 -110 10 -16 2 -73 7 -125 10 -52 4 -113 8 -135 10
-22 2 -101 6 -175 10 -74 4 -166 8 -205 10 -38 2 -202 7 -362 10 l-293 7 0
-2331z"/>
<path d="M3347 6584 c-1 -1 -63 -4 -137 -8 -74 -3 -146 -8 -160 -10 -14 -2
-52 -7 -85 -11 -33 -4 -67 -9 -77 -10 -9 -2 -38 -7 -65 -11 -26 -5 -50 -9 -53
-9 -3 -1 -32 -7 -65 -14 -402 -86 -801 -259 -1150 -498 -330 -227 -666 -570
-876 -893 -79 -121 -96 -151 -166 -280 -198 -367 -330 -816 -371 -1255 -9
-103 -8 -532 2 -610 22 -176 24 -192 42 -295 21 -117 44 -213 80 -331 8 -25
16 -54 18 -65 6 -28 94 -259 128 -334 62 -137 144 -295 192 -370 185 -290 309
-446 506 -641 501 -493 1130 -808 1805 -905 22 -3 50 -7 63 -9 158 -26 648
-27 802 -1 14 2 48 7 75 11 76 9 249 44 353 71 385 100 776 288 1097 529 168
126 231 180 375 325 179 179 334 372 445 552 115 189 207 366 270 523 15 39
33 84 40 100 14 32 93 279 100 314 3 12 7 29 9 39 12 49 38 171 42 197 3 17 9
53 14 80 34 194 51 532 35 730 -9 116 -16 190 -20 220 -3 17 -7 48 -10 70 -4
33 -22 132 -40 227 -12 62 -71 264 -110 376 -117 338 -295 661 -527 960 -75
96 -340 373 -428 448 -145 122 -358 274 -478 341 -26 14 -60 34 -77 44 -180
107 -604 274 -775 305 -14 3 -38 9 -55 14 -39 12 -169 36 -271 49 -44 7 -91
13 -103 16 -35 7 -388 24 -394 19z"/>
</g>
</svg>
