<?xml version="1.0" standalone="no"?>
<!DOCTYPE svg PUBLIC "-//W3C//DTD SVG 20010904//EN"
 "http://www.w3.org/TR/2001/REC-SVG-20010904/DTD/svg10.dtd">
<svg version="1.0" xmlns="http://www.w3.org/2000/svg"
 width="512.000000pt" height="512.000000pt" viewBox="0 0 512.000000 512.000000"
 preserveAspectRatio="xMidYMid meet">
<metadata>
Created by potrace 1.11, written by Peter Selinger 2001-2013
</metadata>
<g transform="translate(0.000000,512.000000) scale(0.100000,-0.100000)"
fill="#000000" stroke="none">
<path d="M2335 4579 c-71 -10 -141 -20 -155 -22 -466 -94 -872 -336 -1185
-707 -106 -125 -241 -351 -308 -515 -72 -176 -128 -403 -144 -585 -13 -142 -7
-382 12 -495 86 -504 318 -919 701 -1252 67 -58 282 -202 374 -250 98 -51 250
-113 340 -138 8 -3 45 -13 83 -24 37 -11 82 -22 100 -26 288 -50 500 -53 777
-10 148 23 362 95 535 180 445 218 796 593 989 1055 25 61 85 244 91 280 3 17
12 61 19 98 28 133 38 233 41 397 1 72 -1 135 -4 140 -3 6 -6 19 -7 30 -1 28
-15 147 -19 165 -2 8 -6 31 -10 50 -44 242 -151 505 -292 719 -294 446 -724
747 -1242 871 -46 11 -102 22 -125 25 -22 3 -51 7 -64 10 -123 23 -344 25
-507 4z m472 -88 c43 -6 90 -13 106 -16 15 -3 38 -7 51 -9 125 -22 346 -100
490 -174 83 -42 287 -173 320 -204 7 -7 33 -29 57 -48 135 -108 328 -341 428
-517 107 -187 196 -433 227 -627 3 -21 7 -48 10 -60 22 -115 22 -491 -1 -559
-2 -7 -6 -28 -9 -47 -27 -174 -92 -373 -177 -542 -255 -508 -714 -876 -1268
-1018 -269 -69 -625 -73 -891 -11 -196 45 -374 111 -509 189 -40 23 -77 42
-82 42 -5 0 -9 5 -9 10 0 6 -5 10 -10 10 -6 0 -34 16 -63 37 -270 188 -486
430 -632 708 -94 179 -178 433 -201 608 -2 18 -6 43 -9 57 -10 44 -13 352 -4
425 18 152 30 216 60 325 67 250 198 506 362 710 141 175 370 371 547 468 224
123 391 182 680 237 14 3 66 8 115 11 50 4 91 8 93 9 6 6 248 -5 319 -14z"/>
<path d="M2363 3642 l-73 -3 -2 -363 -3 -363 -150 49 c-437 141 -528 169 -535
161 -7 -7 -94 -286 -105 -337 -3 -11 -14 -48 -26 -84 -12 -35 -17 -67 -13 -72
8 -7 325 -115 369 -125 11 -3 84 -26 162 -53 l142 -47 -139 -195 c-247 -347
-270 -380 -270 -387 0 -5 22 -22 48 -40 26 -18 86 -60 133 -95 48 -35 97 -70
109 -78 12 -8 28 -20 34 -25 20 -19 107 -77 110 -73 1 1 92 132 201 291 109
158 201 287 204 287 3 -1 96 -131 206 -290 110 -160 202 -290 205 -290 4 0
101 70 135 97 6 5 26 19 45 33 19 13 37 27 40 31 3 3 19 15 35 25 83 52 175
127 168 137 -10 17 -318 452 -365 515 -22 30 -38 55 -36 56 7 5 96 37 114 40
17 4 193 60 489 157 l91 29 -83 247 c-46 135 -85 248 -87 251 -3 2 -96 -25
-208 -61 -363 -118 -427 -138 -435 -139 -5 0 -17 -4 -28 -8 -20 -8 -20 -4 -20
356 l0 363 -195 3 c-107 2 -228 2 -267 0z"/>
</g>
</svg>
